<mxfile host="app.diagrams.net" modified="2020-05-19T11:09:00.921Z" agent="5.0 (Windows NT 10.0; Win64; x64) AppleWebKit/537.36 (KHTML, like Gecko) Chrome/81.0.4044.138 Safari/537.36" etag="RHZzLDsxsjGJuaGc-iLz" version="13.1.2" type="github" pages="2">
  <diagram id="jE7_DleWiSPTElxM09By" name="Input/output data for tools">
    <mxGraphModel dx="1022" dy="478" grid="1" gridSize="10" guides="1" tooltips="1" connect="1" arrows="1" fold="1" page="1" pageScale="1" pageWidth="850" pageHeight="1100" math="0" shadow="0">
      <root>
        <mxCell id="0" />
        <mxCell id="1" parent="0" />
        <mxCell id="U_FdSeKsICIlhDdE6IPR-6" value="" style="verticalLabelPosition=bottom;verticalAlign=top;html=1;shape=mxgraph.basic.patternFillRect;fillStyle=diag;step=5;fillStrokeWidth=0.2;fillStrokeColor=#dddddd;" parent="1" vertex="1">
          <mxGeometry x="20" y="500" width="200" height="90" as="geometry" />
        </mxCell>
        <mxCell id="U_FdSeKsICIlhDdE6IPR-7" value="" style="verticalLabelPosition=bottom;verticalAlign=top;html=1;shape=mxgraph.basic.patternFillRect;fillStyle=diag;step=5;fillStrokeWidth=0.2;fillStrokeColor=#dddddd;" parent="1" vertex="1">
          <mxGeometry x="280" y="500" width="160" height="50" as="geometry" />
        </mxCell>
        <mxCell id="U_FdSeKsICIlhDdE6IPR-5" value="" style="verticalLabelPosition=bottom;verticalAlign=top;html=1;shape=mxgraph.basic.patternFillRect;fillStyle=diagRev;step=5;fillStrokeWidth=0.2;fillStrokeColor=#dddddd;" parent="1" vertex="1">
          <mxGeometry x="20" y="270" width="440" height="80" as="geometry" />
        </mxCell>
        <mxCell id="U_FdSeKsICIlhDdE6IPR-4" value="" style="verticalLabelPosition=bottom;verticalAlign=top;html=1;shape=mxgraph.basic.patternFillRect;fillStyle=diagRev;step=5;fillStrokeWidth=0.2;fillStrokeColor=#dddddd;" parent="1" vertex="1">
          <mxGeometry x="20" y="100" width="440" height="150" as="geometry" />
        </mxCell>
        <mxCell id="P2gioCsrClDY4diuh3kH-1" value="Tool chia chọn - input/output" style="rounded=0;whiteSpace=wrap;html=1;fontStyle=1" parent="1" vertex="1">
          <mxGeometry width="170" height="20" as="geometry" />
        </mxCell>
        <mxCell id="P2gioCsrClDY4diuh3kH-2" value="Bộ mã các sản phẩm (Material)" style="rounded=1;whiteSpace=wrap;html=1;" parent="1" vertex="1">
          <mxGeometry x="320" y="180" width="120" height="60" as="geometry" />
        </mxCell>
        <mxCell id="P2gioCsrClDY4diuh3kH-3" value="File dự báo số lượng từ farm" style="rounded=1;whiteSpace=wrap;html=1;" parent="1" vertex="1">
          <mxGeometry x="170" y="280" width="120" height="60" as="geometry" />
        </mxCell>
        <mxCell id="P2gioCsrClDY4diuh3kH-8" value="File dự báo số lượng thu mua từ các nhà cung cấp" style="rounded=1;whiteSpace=wrap;html=1;" parent="1" vertex="1">
          <mxGeometry x="320" y="280" width="120" height="60" as="geometry" />
        </mxCell>
        <mxCell id="P2gioCsrClDY4diuh3kH-9" value="File danh sách các nhà cung cấp" style="rounded=1;whiteSpace=wrap;html=1;" parent="1" vertex="1">
          <mxGeometry x="170" y="180" width="120" height="60" as="geometry" />
        </mxCell>
        <mxCell id="P2gioCsrClDY4diuh3kH-10" value="File danh sách các khách hàng của VEC" style="rounded=1;whiteSpace=wrap;html=1;" parent="1" vertex="1">
          <mxGeometry x="320" y="110" width="120" height="60" as="geometry" />
        </mxCell>
        <mxCell id="P2gioCsrClDY4diuh3kH-13" value="INPUT DATA" style="text;html=1;strokeColor=none;fillColor=none;align=center;verticalAlign=middle;whiteSpace=wrap;rounded=0;fontStyle=1" parent="1" vertex="1">
          <mxGeometry y="70" width="100" height="20" as="geometry" />
        </mxCell>
        <mxCell id="P2gioCsrClDY4diuh3kH-19" value="File chia tổng" style="rounded=1;whiteSpace=wrap;html=1;" parent="1" vertex="1">
          <mxGeometry x="30" y="510" width="85" height="30" as="geometry" />
        </mxCell>
        <mxCell id="P2gioCsrClDY4diuh3kH-20" value="File chia chi tiết" style="rounded=1;whiteSpace=wrap;html=1;" parent="1" vertex="1">
          <mxGeometry x="120" y="510" width="90" height="30" as="geometry" />
        </mxCell>
        <mxCell id="P2gioCsrClDY4diuh3kH-27" value="File đơn hàng (yêu cầu từ KH)" style="rounded=1;whiteSpace=wrap;html=1;" parent="1" vertex="1">
          <mxGeometry x="170" y="110" width="120" height="60" as="geometry" />
        </mxCell>
        <mxCell id="U_FdSeKsICIlhDdE6IPR-1" value="HỆ THỐNG SAP" style="shape=process;whiteSpace=wrap;html=1;backgroundOutline=1;" parent="1" vertex="1">
          <mxGeometry x="20" y="100" width="120" height="60" as="geometry" />
        </mxCell>
        <mxCell id="U_FdSeKsICIlhDdE6IPR-2" value="HỆ THỐNG FC04" style="shape=process;whiteSpace=wrap;html=1;backgroundOutline=1;" parent="1" vertex="1">
          <mxGeometry x="20" y="270" width="120" height="60" as="geometry" />
        </mxCell>
        <mxCell id="U_FdSeKsICIlhDdE6IPR-8" value="OUTPUT DATA" style="text;html=1;strokeColor=none;fillColor=none;align=center;verticalAlign=middle;whiteSpace=wrap;rounded=0;fontStyle=1" parent="1" vertex="1">
          <mxGeometry y="440" width="100" height="20" as="geometry" />
        </mxCell>
        <mxCell id="U_FdSeKsICIlhDdE6IPR-9" value="Export file excel" style="text;html=1;align=center;verticalAlign=middle;resizable=0;points=[];autosize=1;fontStyle=1" parent="1" vertex="1">
          <mxGeometry x="15" y="470" width="110" height="20" as="geometry" />
        </mxCell>
        <mxCell id="U_FdSeKsICIlhDdE6IPR-10" value="&lt;span style=&quot;font-weight: 700&quot;&gt;Hiển thị lên WEB APP&lt;/span&gt;" style="text;html=1;align=center;verticalAlign=middle;resizable=0;points=[];autosize=1;" parent="1" vertex="1">
          <mxGeometry x="280" y="470" width="140" height="20" as="geometry" />
        </mxCell>
        <mxCell id="U_FdSeKsICIlhDdE6IPR-11" value="File cân tổng" style="rounded=1;whiteSpace=wrap;html=1;" parent="1" vertex="1">
          <mxGeometry x="30" y="550" width="85" height="30" as="geometry" />
        </mxCell>
        <mxCell id="U_FdSeKsICIlhDdE6IPR-12" value="" style="html=1;shadow=0;dashed=0;align=center;verticalAlign=middle;shape=mxgraph.arrows2.arrow;dy=0.6;dx=40;direction=south;notch=0;" parent="1" vertex="1">
          <mxGeometry x="15" y="360" width="40" height="70" as="geometry" />
        </mxCell>
        <mxCell id="PR-Uz38GM0iflWE2yOUM-1" value="File master data" style="rounded=1;whiteSpace=wrap;html=1;" parent="1" vertex="1">
          <mxGeometry x="120" y="550" width="90" height="30" as="geometry" />
        </mxCell>
        <mxCell id="5gbINK6sRwBRFsTSb7Wg-1" value="" style="verticalLabelPosition=bottom;verticalAlign=top;html=1;shape=mxgraph.basic.patternFillRect;fillStyle=diagRev;step=5;fillStrokeWidth=0.2;fillStrokeColor=#dddddd;" parent="1" vertex="1">
          <mxGeometry x="470" y="100" width="290" height="90" as="geometry" />
        </mxCell>
        <mxCell id="5gbINK6sRwBRFsTSb7Wg-2" value="File đơn hàng" style="rounded=1;whiteSpace=wrap;html=1;" parent="1" vertex="1">
          <mxGeometry x="610" y="110" width="80" height="30" as="geometry" />
        </mxCell>
        <mxCell id="5gbINK6sRwBRFsTSb7Wg-3" value="File dự báo sản lượng" style="rounded=1;whiteSpace=wrap;html=1;" parent="1" vertex="1">
          <mxGeometry x="700" y="110" width="50" height="60" as="geometry" />
        </mxCell>
        <mxCell id="5gbINK6sRwBRFsTSb7Wg-4" value="MASTER DATA" style="shape=process;whiteSpace=wrap;html=1;backgroundOutline=1;" parent="1" vertex="1">
          <mxGeometry x="470" y="100" width="120" height="60" as="geometry" />
        </mxCell>
        <mxCell id="5gbINK6sRwBRFsTSb7Wg-5" value="File cấu hình" style="rounded=1;whiteSpace=wrap;html=1;" parent="1" vertex="1">
          <mxGeometry x="610" y="145" width="80" height="30" as="geometry" />
        </mxCell>
      </root>
    </mxGraphModel>
  </diagram>
  <diagram id="AeWwowCdW-z8E2U1A-4O" name="Team phát triển">
    <mxGraphModel dx="1022" dy="478" grid="1" gridSize="10" guides="1" tooltips="1" connect="1" arrows="1" fold="1" page="1" pageScale="1" pageWidth="850" pageHeight="1100" math="0" shadow="0">
      <root>
        <mxCell id="aiDrh6h3uBej957-tkza-0" />
        <mxCell id="aiDrh6h3uBej957-tkza-1" parent="aiDrh6h3uBej957-tkza-0" />
        <mxCell id="aiDrh6h3uBej957-tkza-3" value="IT VEC" style="rounded=0;whiteSpace=wrap;html=1;fillColor=#CCCCCC;" parent="aiDrh6h3uBej957-tkza-1" vertex="1">
          <mxGeometry x="240" y="100" width="120" height="30" as="geometry" />
        </mxCell>
        <mxCell id="aiDrh6h3uBej957-tkza-4" value="Nhà thầu phát triển" style="rounded=0;whiteSpace=wrap;html=1;fillColor=#CCCCCC;" parent="aiDrh6h3uBej957-tkza-1" vertex="1">
          <mxGeometry x="480" y="280" width="120" height="30" as="geometry" />
        </mxCell>
        <mxCell id="aiDrh6h3uBej957-tkza-5" value="Phòng Quản lý ngành hàng" style="rounded=0;whiteSpace=wrap;html=1;fillColor=#CCCCCC;" parent="aiDrh6h3uBej957-tkza-1" vertex="1">
          <mxGeometry x="10" y="290" width="120" height="30" as="geometry" />
        </mxCell>
        <mxCell id="aiDrh6h3uBej957-tkza-10" value="Thành phần:&lt;br&gt;- Anh Khang&lt;br&gt;&lt;br&gt;Vai trò&lt;br&gt;- Đưa yêu cầu, bài toán" style="rounded=0;whiteSpace=wrap;html=1;align=left;" parent="aiDrh6h3uBej957-tkza-1" vertex="1">
          <mxGeometry x="10" y="330" width="120" height="110" as="geometry" />
        </mxCell>
        <mxCell id="aiDrh6h3uBej957-tkza-11" value="Thành phần:&lt;br&gt;- Anh Chiến&lt;br&gt;- Anh Tuấn Anh&lt;br&gt;- Hảo&lt;br&gt;&lt;br&gt;Vai trò:&lt;br&gt;- Control dự án&lt;br&gt;- Vertify yêu cầu&lt;br&gt;- Tư vấn cho phòng QLNH&lt;br&gt;&amp;nbsp;" style="rounded=0;whiteSpace=wrap;html=1;align=left;" parent="aiDrh6h3uBej957-tkza-1" vertex="1">
          <mxGeometry x="240" y="140" width="120" height="160" as="geometry" />
        </mxCell>
        <mxCell id="aiDrh6h3uBej957-tkza-12" value="Thành phần:&lt;br&gt;- Anh Đức&lt;br&gt;- Anh Ngọc&lt;br&gt;&lt;br&gt;Vai trò:&lt;br&gt;- Phát triển dự án" style="rounded=0;whiteSpace=wrap;html=1;align=left;" parent="aiDrh6h3uBej957-tkza-1" vertex="1">
          <mxGeometry x="480" y="320" width="120" height="110" as="geometry" />
        </mxCell>
        <mxCell id="aiDrh6h3uBej957-tkza-15" value="" style="endArrow=classic;startArrow=classic;html=1;" parent="aiDrh6h3uBej957-tkza-1" edge="1">
          <mxGeometry width="50" height="50" relative="1" as="geometry">
            <mxPoint x="140" y="290" as="sourcePoint" />
            <mxPoint x="230" y="200" as="targetPoint" />
          </mxGeometry>
        </mxCell>
        <mxCell id="aiDrh6h3uBej957-tkza-16" value="" style="endArrow=classic;startArrow=classic;html=1;" parent="aiDrh6h3uBej957-tkza-1" edge="1">
          <mxGeometry width="50" height="50" relative="1" as="geometry">
            <mxPoint x="140" y="370" as="sourcePoint" />
            <mxPoint x="470" y="370" as="targetPoint" />
          </mxGeometry>
        </mxCell>
        <mxCell id="aiDrh6h3uBej957-tkza-17" value="" style="endArrow=classic;startArrow=classic;html=1;" parent="aiDrh6h3uBej957-tkza-1" edge="1">
          <mxGeometry width="50" height="50" relative="1" as="geometry">
            <mxPoint x="370" y="200" as="sourcePoint" />
            <mxPoint x="470" y="280" as="targetPoint" />
          </mxGeometry>
        </mxCell>
        <mxCell id="aiDrh6h3uBej957-tkza-18" value="Team phát triển dự án" style="text;html=1;strokeColor=none;fillColor=none;align=center;verticalAlign=middle;whiteSpace=wrap;rounded=0;fontStyle=1" parent="aiDrh6h3uBej957-tkza-1" vertex="1">
          <mxGeometry width="140" height="20" as="geometry" />
        </mxCell>
      </root>
    </mxGraphModel>
  </diagram>
</mxfile>
